# xmcd
#
# Track frame offsets: 
#        150
#        10862
#        27687
#        44212
#        62802
#        76070
#        89182
#        101565
#        114492
#        129180
#        145685
#
# Disc length: 2163 seconds
#
# Revision: 7
# Processed by: cddbd v1.5.2PL0 Copyright (c) Steve Scherf et al.
# Submitted via: ExactAudioCopy v0.99pb5
#
DISCID=9508710b
DTITLE=Commitments - The Commitments Vol. 2
DYEAR=1992
DGENRE=Blues
TTITLE0=Hard To Handle
TTITLE1=Grits Ain't Groceries
TTITLE2=I Thank You
TTITLE3=That's the Way Love Is
TTITLE4=Show Me
TTITLE5=Saved
TTITLE6=Too Many Fish in the Sea
TTITLE7=Fa-Fa-Fa-Fa-Fa (Sad Song)
TTITLE8=Land of a Thousand Dances
TTITLE9=Nowhere to Run
TTITLE10=Bring It on Home to Me
EXTD=YEAR: 1992 ID3G: 42
EXTT0=
EXTT1=
EXTT2=
EXTT3=
EXTT4=
EXTT5=
EXTT6=
EXTT7=
EXTT8=
EXTT9=
EXTT10=
PLAYORDER=
